<svg width="24" height="24" viewBox="0 0 24 24" fill="none" xmlns="http://www.w3.org/2000/svg">
<path d="M16.7342 6.52816H12.612V5.81097C13.1743 5.57191 13.5696 5.01398 13.5696 4.36539C13.5696 3.99601 13.4371 3.47261 13.232 3.03199C12.8348 2.17902 12.3427 2 11.9998 2C11.657 2 11.1648 2.17902 10.7676 3.03203C10.5624 3.47261 10.4299 3.99601 10.4299 4.36543C10.4299 5.01402 10.8253 5.57195 11.3877 5.81101V6.52816H7.2654C5.32138 6.52816 3.73975 8.10979 3.73975 10.0539V11.5548C3.73975 12.5967 4.24666 13.5223 5.0265 14.0986V18.4743C5.0265 20.4184 6.60814 22 8.5522 22H15.4474C17.3914 22 18.973 20.4184 18.973 18.4743V14.0986C19.7529 13.5223 20.2598 12.5967 20.2598 11.5547V10.0539C20.2599 8.10979 18.6782 6.52816 16.7342 6.52816ZM11.9998 3.32105C12.1632 3.56965 12.3453 4.09007 12.3453 4.36543C12.3453 4.55597 12.1903 4.71097 11.9998 4.71097C11.8092 4.71097 11.6541 4.55597 11.6541 4.36543C11.6542 4.09011 11.8363 3.56965 11.9998 3.32105ZM17.7488 18.4743C17.7487 19.7432 16.7164 20.7756 15.4474 20.7756H8.5522C7.28322 20.7756 6.25083 19.7433 6.25083 18.4743V14.6487C6.4608 14.6928 6.6783 14.7163 6.90119 14.7163C7.94657 14.7163 8.87466 14.206 9.45052 13.4217C10.0264 14.2059 10.9544 14.7163 11.9998 14.7163C13.0452 14.7163 13.9732 14.2059 14.5491 13.4217C15.125 14.2059 16.0531 14.7163 17.0984 14.7163C17.3213 14.7163 17.5387 14.6928 17.7487 14.6487V18.4743H17.7488ZM19.0355 11.5547C19.0355 12.6229 18.1666 13.492 17.0984 13.492C16.0303 13.492 15.1612 12.6229 15.1612 11.5547C15.1612 11.2167 14.8871 10.9426 14.5491 10.9426C14.211 10.9426 13.937 11.2167 13.937 11.5547C13.937 12.6229 13.068 13.492 11.9998 13.492C10.9316 13.492 10.0627 12.6229 10.0627 11.5547C10.0627 11.2167 9.78856 10.9426 9.45048 10.9426C9.11239 10.9426 8.83833 11.2167 8.83833 11.5547C8.83833 12.6229 7.96931 13.492 6.90115 13.492C5.83298 13.492 4.964 12.6229 4.964 11.5547V10.0539C4.964 8.78487 5.99634 7.75245 7.26533 7.75245H16.7342C18.0032 7.75245 19.0355 8.78483 19.0355 10.0539V11.5547Z" fill="black"/>
</svg>
