<svg width="16" height="16" viewBox="0 0 16 16" fill="none" xmlns="http://www.w3.org/2000/svg">
<g opacity="0.5">
<path fill-rule="evenodd" clip-rule="evenodd" d="M5.11016 2.3335C3.4235 2.3335 2.3335 3.48883 2.3335 5.2775V10.7228C2.3335 12.5115 3.4235 13.6668 5.11016 13.6668H10.8888C12.5762 13.6668 13.6668 12.5115 13.6668 10.7228V5.2775C13.6668 3.48883 12.5768 2.3335 10.8895 2.3335H5.11016ZM10.8888 14.6668H5.11016C2.85083 14.6668 1.3335 13.0815 1.3335 10.7228V5.2775C1.3335 2.91883 2.85083 1.3335 5.11016 1.3335H10.8895C13.1488 1.3335 14.6668 2.91883 14.6668 5.2775V10.7228C14.6668 13.0815 13.1488 14.6668 10.8888 14.6668Z" fill="black"/>
<path fill-rule="evenodd" clip-rule="evenodd" d="M10.2602 9.84536C10.1728 9.84536 10.0848 9.82269 10.0042 9.77536L7.74351 8.42669C7.59285 8.33602 7.49951 8.17269 7.49951 7.99736V5.08936C7.49951 4.81336 7.72351 4.58936 7.99951 4.58936C8.27551 4.58936 8.49951 4.81336 8.49951 5.08936V7.71336L10.5168 8.91536C10.7535 9.05736 10.8315 9.36402 10.6902 9.60136C10.5962 9.75802 10.4302 9.84536 10.2602 9.84536Z" fill="black"/>
</g>
</svg>
