<svg width="20" height="20" viewBox="0 0 20 20" fill="none" xmlns="http://www.w3.org/2000/svg">
<path d="M10.4691 18.5C9.98178 18.4998 9.49529 18.4601 9.01439 18.3812C6.6622 17.9953 4.55938 16.6914 3.16777 14.7562C1.77616 12.8209 1.20956 10.4125 1.59241 8.05975C1.80664 6.72038 2.32296 5.44737 3.10224 4.33718C3.88151 3.22699 4.90329 2.30877 6.09013 1.6521C6.29036 1.54022 6.51852 1.48821 6.74745 1.50224C6.97639 1.51628 7.19649 1.59577 7.38155 1.73127C7.57072 1.8607 7.71819 2.04232 7.80604 2.25402C7.89388 2.46573 7.91831 2.6984 7.87635 2.92374L7.23311 2.87426L7.84172 2.98311C7.49835 4.80446 7.81922 6.68855 8.7461 8.29357C9.67298 9.89859 11.1445 11.1182 12.8936 11.7312C14.2406 12.1986 15.6898 12.2893 17.0846 11.9934C17.3053 11.9501 17.5337 11.9693 17.7441 12.0488C17.9544 12.1284 18.1384 12.2651 18.2752 12.4436C18.4121 12.6221 18.4963 12.8353 18.5185 13.0591C18.5407 13.2829 18.4999 13.5085 18.4007 13.7103C17.6376 15.1532 16.4963 16.3612 15.099 17.2049C13.7018 18.0487 12.1013 18.4964 10.4691 18.5ZM6.62451 2.77035C5.6781 3.30698 4.85523 4.03678 4.20938 4.91229C3.56352 5.78781 3.10916 6.78945 2.87582 7.8521C2.64247 8.91474 2.63538 10.0146 2.85499 11.0802C3.07461 12.1457 3.51601 13.1531 4.15052 14.0369C4.91528 15.1059 5.93941 15.9628 7.12657 16.527C8.31373 17.0912 9.6249 17.3441 10.9367 17.262C12.2486 17.1798 13.5179 16.7653 14.6255 16.0575C15.733 15.3496 16.6422 14.3716 17.2676 13.2156C15.6761 13.5355 14.0281 13.4262 12.4928 12.8989C10.467 12.1886 8.76201 10.7772 7.68582 8.91971C6.60962 7.06223 6.23318 4.88111 6.62451 2.77035Z" fill="black"/>
</svg>
