<svg width="20" height="21" viewBox="0 0 20 21" fill="none" xmlns="http://www.w3.org/2000/svg">
<path d="M20 10.7251C20 5.21068 15.5144 0.725098 10 0.725098C4.48558 0.725098 0 5.21068 0 10.7251C0 13.953 1.54325 16.82 3.92465 18.6498C3.92837 18.6535 3.93398 18.6554 3.9377 18.6591C5.62236 19.9493 7.71998 20.7251 10.0009 20.7251C12.2818 20.7251 14.3796 19.9493 16.0642 18.6591C16.0679 18.6554 16.0735 18.6535 16.0772 18.6498C18.4567 16.82 20 13.953 20 10.7251ZM1.39535 10.7251C1.39535 5.97998 5.25488 2.12045 10 2.12045C14.7451 2.12045 18.6047 5.97998 18.6047 10.7251C18.6047 13.0721 17.6577 15.2014 16.1284 16.7549C15.7107 14.9865 14.3739 13.3483 11.5907 13.3483H8.40934C5.62608 13.3483 4.28836 14.9865 3.87162 16.7549C2.34231 15.2014 1.39535 13.0721 1.39535 10.7251ZM5.12468 17.8079C5.17864 16.8535 5.61492 14.7437 8.40934 14.7437H11.5907C14.3851 14.7437 14.8214 16.8535 14.8753 17.8079C13.4883 18.766 11.8093 19.3298 10 19.3298C8.1907 19.3298 6.51166 18.7651 5.12468 17.8079ZM10.0075 12.353C11.9303 12.353 13.4959 10.7884 13.4959 8.86463C13.4959 6.94091 11.9303 5.37626 10.0075 5.37626C8.0847 5.37626 6.51912 6.94091 6.51912 8.86463C6.51912 10.7884 8.08377 12.353 10.0075 12.353ZM10.0075 6.77161C11.161 6.77161 12.1005 7.71021 12.1005 8.86463C12.1005 10.0191 11.161 10.9577 10.0075 10.9577C8.85401 10.9577 7.91447 10.0191 7.91447 8.86463C7.91447 7.71021 8.85401 6.77161 10.0075 6.77161Z" fill="#2B2B2B"/>
</svg>
