<svg width="20" height="20" viewBox="0 0 20 20" fill="none" xmlns="http://www.w3.org/2000/svg">
<path d="M10.0002 9.99984C12.3013 9.99984 14.1668 8.13436 14.1668 5.83317C14.1668 3.53198 12.3013 1.6665 10.0002 1.6665C7.69898 1.6665 5.8335 3.53198 5.8335 5.83317C5.8335 8.13436 7.69898 9.99984 10.0002 9.99984Z" stroke="#DA104D" stroke-width="1.5" stroke-linecap="round" stroke-linejoin="round"/>
<path d="M2.8418 18.3333C2.8418 15.1083 6.05013 12.5 10.0001 12.5C10.8001 12.5 11.5751 12.6083 12.3001 12.8083" stroke="#DA104D" stroke-width="1.5" stroke-linecap="round" stroke-linejoin="round"/>
<path d="M18.3332 14.9998C18.3332 15.2665 18.2998 15.5248 18.2332 15.7748C18.1582 16.1082 18.0248 16.4332 17.8498 16.7165C17.2748 17.6832 16.2165 18.3332 14.9998 18.3332C14.1415 18.3332 13.3665 18.0081 12.7832 17.4748C12.5332 17.2581 12.3165 16.9998 12.1498 16.7165C11.8415 16.2165 11.6665 15.6248 11.6665 14.9998C11.6665 14.0998 12.0248 13.2749 12.6082 12.6749C13.2165 12.0499 14.0665 11.6665 14.9998 11.6665C15.9832 11.6665 16.8748 12.0915 17.4748 12.7749C18.0082 13.3665 18.3332 14.1498 18.3332 14.9998Z" stroke="#DA104D" stroke-width="1.5" stroke-miterlimit="10" stroke-linecap="round" stroke-linejoin="round"/>
<path d="M15.8584 14.1167L14.1001 15.875" stroke="#DA104D" stroke-width="1.5" stroke-miterlimit="10" stroke-linecap="round" stroke-linejoin="round"/>
<path d="M14.1167 14.1333L15.8834 15.8916" stroke="#DA104D" stroke-width="1.5" stroke-miterlimit="10" stroke-linecap="round" stroke-linejoin="round"/>
</svg>
