<svg width="24" height="25" viewBox="0 0 24 25" fill="none" xmlns="http://www.w3.org/2000/svg">
<path d="M9.76045 14.7944C9.18545 14.2204 8.83545 13.4404 8.83545 12.5654C8.83545 10.8124 10.2474 9.39941 11.9994 9.39941C12.8664 9.39941 13.6644 9.75041 14.2294 10.3244" stroke="black" stroke-width="1.5" stroke-linecap="round" stroke-linejoin="round"/>
<path d="M15.1049 13.126C14.8729 14.416 13.8569 15.434 12.5679 15.668" stroke="black" stroke-width="1.5" stroke-linecap="round" stroke-linejoin="round"/>
<path d="M6.65451 17.8997C5.06751 16.6537 3.72351 14.8337 2.74951 12.5647C3.73351 10.2857 5.08651 8.45572 6.68351 7.19972C8.27051 5.94372 10.1015 5.26172 11.9995 5.26172C13.9085 5.26172 15.7385 5.95372 17.3355 7.21872" stroke="black" stroke-width="1.5" stroke-linecap="round" stroke-linejoin="round"/>
<path d="M19.4473 9.41797C20.1353 10.332 20.7403 11.387 21.2493 12.564C19.2823 17.121 15.8063 19.866 11.9993 19.866C11.1363 19.866 10.2853 19.726 9.46729 19.453" stroke="black" stroke-width="1.5" stroke-linecap="round" stroke-linejoin="round"/>
<path d="M19.8868 4.67676L4.11279 20.4508" stroke="black" stroke-width="1.5" stroke-linecap="round" stroke-linejoin="round"/>
</svg>
