<svg width="22" height="22" viewBox="0 0 22 22" fill="none" xmlns="http://www.w3.org/2000/svg">
<g clip-path="url(#clip0_2676_4974)">
<path d="M20.201 4.93915L21.5 4.93703L21.4933 0.831375L17.3876 0.824707L17.3855 2.12368L19.2794 2.12675L16.7432 4.66294C15.6008 3.7279 14.183 3.2194 12.687 3.2194C11.6667 3.2194 10.6829 3.4559 9.79793 3.90287C8.93139 3.46599 7.95309 3.21944 6.91821 3.21944C3.37921 3.21944 0.5 6.09865 0.5 9.63769C0.5 12.9575 3.0336 15.6966 6.26877 16.0233V18.0843H4.46891V19.3833H6.26877V21.1752H7.56773V19.3833H9.36763V18.0844H7.56773V16.0233C8.36262 15.9431 9.11498 15.7169 9.79798 15.3725C10.683 15.8194 11.6668 16.0559 12.687 16.0559C14.4014 16.0559 16.0132 15.3883 17.2254 14.1761C18.4377 12.9638 19.1053 11.3521 19.1053 9.63769C19.1053 8.14167 18.5968 6.72389 17.6618 5.58145L20.198 3.04525L20.201 4.93915ZM6.91825 14.757C4.09546 14.757 1.79897 12.4605 1.79897 9.63769C1.79897 6.8149 4.09546 4.51841 6.91825 4.51841C7.47131 4.51841 8.00397 4.60691 8.50334 4.76989C8.38171 4.87476 8.26338 4.98457 8.14863 5.09931C5.64617 7.60177 5.64617 11.6736 8.14863 14.1761C8.26338 14.2908 8.38171 14.4006 8.50334 14.5054C8.00397 14.6685 7.47131 14.757 6.91825 14.757ZM12.0375 9.63769C12.0375 11.3926 11.1498 12.9438 9.80001 13.8666C9.54018 13.6884 9.29471 13.4852 9.06713 13.2576C7.07114 11.2615 7.07114 8.01385 9.06713 6.01781C9.29476 5.79019 9.54018 5.58699 9.80001 5.40881C11.1498 6.33156 12.0375 7.88283 12.0375 9.63769ZM16.3069 13.2576C15.34 14.2245 14.0544 14.757 12.687 14.757C12.1384 14.757 11.603 14.6711 11.0961 14.506C12.4668 13.328 13.3365 11.5826 13.3365 9.63769C13.3365 7.69279 12.4668 5.94741 11.096 4.76942C11.603 4.60432 12.1384 4.51841 12.687 4.51841C14.0544 4.51841 15.34 5.0509 16.3069 6.01781C17.2738 6.98472 17.8063 8.27027 17.8063 9.63769C17.8063 11.0051 17.2738 12.2907 16.3069 13.2576Z" fill="black"/>
</g>
<defs>
<clipPath id="clip0_2676_4974">
<rect width="21" height="21" fill="white" transform="translate(0.5 0.5)"/>
</clipPath>
</defs>
</svg>
