<svg width="20" height="20" viewBox="0 0 20 20" fill="none" xmlns="http://www.w3.org/2000/svg">
<path d="M10 18.5C14.6944 18.5 18.5 14.6944 18.5 10C18.5 5.30558 14.6944 1.5 10 1.5C5.30558 1.5 1.5 5.30558 1.5 10C1.5 14.6944 5.30558 18.5 10 18.5Z" stroke="black" stroke-width="1.2" stroke-linecap="square"/>
<path d="M10.0001 18.5C12.2668 16.4394 13.4001 13.6061 13.4001 10C13.4001 6.39394 12.2668 3.56061 10.0001 1.5C7.73343 3.56061 6.6001 6.39394 6.6001 10C6.6001 13.6061 7.73343 16.4394 10.0001 18.5Z" stroke="black" stroke-width="1.2" stroke-linecap="round"/>
<path d="M1.92529 7.4502H18.0753M1.92529 12.5502H18.0753" stroke="black" stroke-width="1.2" stroke-linecap="round"/>
</svg>
