<svg width="20" height="20" viewBox="0 0 20 20" fill="none" xmlns="http://www.w3.org/2000/svg">
<path fill-rule="evenodd" clip-rule="evenodd" d="M10.2088 7.08301C9.40466 7.08301 8.75049 7.73718 8.75049 8.54219C8.75049 9.34636 9.40466 9.99969 10.2088 9.99969C11.013 9.99969 11.6672 9.34636 11.6672 8.54219C11.6672 7.73718 11.013 7.08301 10.2088 7.08301M10.2088 11.2497C8.71549 11.2497 7.50049 10.0355 7.50049 8.54219C7.50049 7.04801 8.71549 5.83301 10.2088 5.83301C11.7022 5.83301 12.9172 7.04801 12.9172 8.54219C12.9172 10.0355 11.7022 11.2497 10.2088 11.2497" fill="black"/>
<mask id="mask0_2845_84" style="mask-type:luminance" maskUnits="userSpaceOnUse" x="3" y="1" width="15" height="17">
<path fill-rule="evenodd" clip-rule="evenodd" d="M3.3335 1.6665H17.0831V17.9166H3.3335V1.6665Z" fill="white"/>
</mask>
<g mask="url(#mask0_2845_84)">
<path fill-rule="evenodd" clip-rule="evenodd" d="M10.208 2.91651C7.10634 2.91651 4.58301 5.46402 4.58301 8.59403C4.58301 12.5765 9.26967 16.4566 10.208 16.6632C11.1463 16.4557 15.833 12.5757 15.833 8.59403C15.833 5.46402 13.3097 2.91651 10.208 2.91651V2.91651ZM10.208 17.9166C8.71301 17.9166 3.33301 13.2899 3.33301 8.59403C3.33301 4.77402 6.41717 1.6665 10.208 1.6665C13.9988 1.6665 17.083 4.77402 17.083 8.59403C17.083 13.2899 11.703 17.9166 10.208 17.9166V17.9166Z" fill="black"/>
</g>
</svg>
