<svg width="20" height="20" viewBox="0 0 20 20" fill="none" xmlns="http://www.w3.org/2000/svg">
<path fill-rule="evenodd" clip-rule="evenodd" d="M9.81443 11.2207C9.25693 11.2207 8.7011 11.0366 8.2361 10.6682L4.4986 7.65491C4.22943 7.43824 4.18777 7.04408 4.4036 6.77574C4.6211 6.50824 5.01443 6.46574 5.28277 6.68158L9.01693 9.69158C9.4861 10.0632 10.1469 10.0632 10.6194 9.68824L14.3161 6.68324C14.5844 6.46408 14.9778 6.50574 15.1961 6.77408C15.4136 7.04158 15.3728 7.43491 15.1053 7.65324L11.4019 10.6632C10.9336 11.0349 10.3736 11.2207 9.81443 11.2207Z" fill="black"/>
<mask id="mask0_2676_2526" style="mask-type:luminance" maskUnits="userSpaceOnUse" x="0" y="1" width="19" height="17">
<path fill-rule="evenodd" clip-rule="evenodd" d="M0.833496 1.6665H18.7501V17.9165H0.833496V1.6665Z" fill="white"/>
</mask>
<g mask="url(#mask0_2676_2526)">
<path fill-rule="evenodd" clip-rule="evenodd" d="M5.69933 16.6665H13.8827C13.8843 16.6648 13.891 16.6665 13.896 16.6665C14.8468 16.6665 15.6902 16.3265 16.3368 15.6807C17.0877 14.9332 17.5002 13.859 17.5002 12.6565V6.93317C17.5002 4.60567 15.9785 2.9165 13.8827 2.9165H5.701C3.60516 2.9165 2.0835 4.60567 2.0835 6.93317V12.6565C2.0835 13.859 2.49683 14.9332 3.24683 15.6807C3.8935 16.3265 4.73766 16.6665 5.68766 16.6665H5.69933ZM5.68516 17.9165C4.39933 17.9165 3.251 17.4498 2.36433 16.5665C1.37683 15.5815 0.833496 14.1932 0.833496 12.6565V6.93317C0.833496 3.93067 2.926 1.6665 5.701 1.6665H13.8827C16.6577 1.6665 18.7502 3.93067 18.7502 6.93317V12.6565C18.7502 14.1932 18.2068 15.5815 17.2193 16.5665C16.3335 17.449 15.1843 17.9165 13.896 17.9165H13.8827H5.701H5.68516Z" fill="black"/>
</g>
</svg>
