<svg width="20" height="21" viewBox="0 0 20 21" fill="none" xmlns="http://www.w3.org/2000/svg">
<g clip-path="url(#clip0_2616_16319)">
<path d="M17.3563 14.6519L16.4453 14.0446V8.77222C16.4453 5.41577 13.8663 2.65085 10.5859 2.35382V1.31128C10.5859 0.987686 10.3236 0.725342 10 0.725342C9.67641 0.725342 9.41406 0.987686 9.41406 1.31128V2.35382C6.13371 2.65085 3.55469 5.41577 3.55469 8.77222V14.0446L2.64375 14.6519C2.4807 14.7606 2.38281 14.9435 2.38281 15.1394V17.4832C2.38281 17.8067 2.64516 18.0691 2.96875 18.0691H6.83105C7.10609 19.578 8.42191 20.7253 10 20.7253C11.578 20.7253 12.8939 19.578 13.1689 18.0691H17.0312C17.3548 18.0691 17.6172 17.8067 17.6172 17.4832V15.1394C17.6172 14.9435 17.5193 14.7605 17.3563 14.6519ZM10 19.5535C9.07074 19.5535 8.28379 18.9262 8.03285 18.0691H11.9672C11.7162 18.9262 10.9293 19.5535 10 19.5535ZM16.4453 16.8972C15.9015 16.8972 4.19477 16.8972 3.55469 16.8972V15.453L4.46563 14.8457C4.62863 14.737 4.72656 14.5541 4.72656 14.3582V8.77222C4.72656 5.86444 7.09223 3.49878 10 3.49878C12.9078 3.49878 15.2734 5.86444 15.2734 8.77222V14.3582C15.2734 14.5541 15.3714 14.737 15.5344 14.8457L16.4453 15.453V16.8972Z" fill="black"/>
</g>
<defs>
<clipPath id="clip0_2616_16319">
<rect width="20" height="20" fill="white" transform="translate(0 0.725342)"/>
</clipPath>
</defs>
</svg>
