<svg width="20" height="20" viewBox="0 0 20 20" fill="none" xmlns="http://www.w3.org/2000/svg">
<path fill-rule="evenodd" clip-rule="evenodd" d="M2.74044 3.40638L2.80089 3.3432C4.40708 1.73687 5.45304 1.3111 6.56906 1.95286C6.89009 2.13746 7.19105 2.39586 7.60029 2.81151L8.8556 4.1132C9.54895 4.86978 9.70657 5.59549 9.48081 6.44538L9.4497 6.55789L9.41518 6.66977L9.24737 7.16212C8.88819 8.26627 9.03814 8.88924 10.3161 10.1668C11.645 11.4954 12.2653 11.6041 13.4546 11.1885L13.6666 11.1148L13.9229 11.0316L14.0351 11.0004C14.9384 10.7594 15.7015 10.9518 16.5108 11.7605L17.5223 12.7375L17.82 13.0303C18.1501 13.3669 18.3683 13.6337 18.5294 13.9156C19.1672 15.0313 18.7409 16.0766 17.0884 17.7229L16.9312 17.8822C16.6845 18.12 16.454 18.2904 16.1153 18.4512C15.5469 18.7211 14.8753 18.8228 14.095 18.7143C12.1721 18.4469 9.7333 16.9297 6.64307 13.8402C6.39152 13.5887 6.15059 13.3421 5.92005 13.1002L5.47273 12.6228C1.28119 8.06888 0.911411 5.27141 2.62915 3.51692L2.74044 3.40638ZM6.58852 3.56727C6.31702 3.29962 6.1198 3.13645 5.94593 3.03647C5.56133 2.8153 5.14608 2.90879 4.37758 3.57023L4.13611 3.78596C4.09399 3.82484 4.05091 3.8652 4.00682 3.90707L3.72993 4.17676L3.70498 4.20794L3.51726 4.39653C3.06364 4.85987 2.84876 5.42537 3.03392 6.3979C3.33776 7.99375 4.72852 10.1586 7.52684 12.9562C10.4426 15.8712 12.6641 17.2533 14.2672 17.4762C15.2017 17.6062 15.6783 17.3798 16.1645 16.8818L16.5352 16.5077C16.709 16.3258 16.8575 16.1609 16.983 16.0103L17.154 15.7948C17.5913 15.2124 17.6312 14.863 17.4442 14.5359C17.3731 14.4114 17.2696 14.275 17.1189 14.1082L16.9145 13.8924L16.7936 13.7713L15.5176 12.5392C15.0911 12.1459 14.7997 12.0901 14.3573 12.2082L14.2296 12.2449L13.701 12.4244C12.1676 12.9196 11.0613 12.6795 9.43228 11.0508C7.74508 9.36404 7.54721 8.23765 8.11252 6.61581L8.14879 6.51159L8.24907 6.20945L8.29837 6.01686C8.38578 5.59772 8.28598 5.30548 7.83541 4.85484C7.81686 4.83629 7.79613 4.81539 7.77357 4.79251L6.58852 3.56727Z" fill="black"/>
</svg>
