<svg width="21" height="20" viewBox="0 0 21 20" fill="none" xmlns="http://www.w3.org/2000/svg">
<mask id="mask0_2616_15161" style="mask-type:luminance" maskUnits="userSpaceOnUse" x="3" y="1" width="15" height="18">
<path fill-rule="evenodd" clip-rule="evenodd" d="M3.5 1.66699H17.639V18.63H3.5V1.66699Z" fill="white"/>
</mask>
<g mask="url(#mask0_2616_15161)">
<path fill-rule="evenodd" clip-rule="evenodd" d="M10.5695 2.9165C9.86285 2.9165 5.40451 4.4865 4.89035 4.91567C4.73868 5.06817 4.73285 5.33317 4.76535 7.10734C4.78035 7.96234 4.80118 9.124 4.80118 10.7323C4.80118 15.0665 9.56951 16.9907 10.5687 17.3448C11.567 16.989 16.3378 15.054 16.3378 10.7323C16.3378 9.12234 16.3587 7.95984 16.3745 7.10484C16.4062 5.33234 16.4003 5.06734 16.2395 4.90734C15.7353 4.4865 11.2762 2.9165 10.5695 2.9165ZM10.5695 18.6298C10.5087 18.6298 10.4478 18.6215 10.3887 18.6032C10.1095 18.519 3.55118 16.4673 3.55118 10.7323C3.55118 9.13484 3.53035 7.979 3.51535 7.13067C3.47701 5.0115 3.46868 4.56984 4.01618 4.02317C4.67035 3.36734 9.62451 1.6665 10.5695 1.6665C11.5137 1.6665 16.4678 3.36734 17.1237 4.02317C17.6703 4.56984 17.662 5.0115 17.6237 7.12817C17.6087 7.9765 17.5878 9.13234 17.5878 10.7323C17.5878 16.4673 11.0295 18.519 10.7503 18.6032C10.6912 18.6215 10.6303 18.6298 10.5695 18.6298Z" fill="black"/>
</g>
<path fill-rule="evenodd" clip-rule="evenodd" d="M9.98086 12.0994C9.81503 12.0994 9.65586 12.0336 9.53836 11.9161L7.96169 10.3377C7.71836 10.0936 7.71836 9.6969 7.96253 9.45357C8.20586 9.2094 8.60253 9.2094 8.84669 9.45357L9.98086 10.5894L12.7875 7.78273C13.0317 7.53857 13.4267 7.53857 13.6709 7.78273C13.915 8.0269 13.915 8.42273 13.6709 8.6669L10.4225 11.9161C10.3059 12.0336 10.1467 12.0994 9.98086 12.0994Z" fill="black"/>
</svg>
