<svg width="24" height="23" viewBox="0 0 24 23" fill="none" xmlns="http://www.w3.org/2000/svg">
<path fill-rule="evenodd" clip-rule="evenodd" d="M13.4142 11.0794L17.7072 7.16123C18.0982 6.80437 18.0982 6.22754 17.7072 5.87068C17.3162 5.51381 16.6842 5.51381 16.2933 5.87068L12.0002 9.78889L7.70725 5.87068C7.31625 5.51381 6.68425 5.51381 6.29325 5.87068C5.90225 6.22754 5.90225 6.80437 6.29325 7.16123L10.5862 11.0794L6.29325 14.9977C5.90225 15.3545 5.90225 15.9313 6.29325 16.2882C6.48825 16.4662 6.74425 16.5556 7.00025 16.5556C7.25625 16.5556 7.51225 16.4662 7.70725 16.2882L12.0002 12.37L16.2933 16.2882C16.4882 16.4662 16.7443 16.5556 17.0002 16.5556C17.2562 16.5556 17.5122 16.4662 17.7072 16.2882C18.0982 15.9313 18.0982 15.3545 17.7072 14.9977L13.4142 11.0794Z" fill="#181B20"/>
</svg>
